<svg xmlns="http://www.w3.org/2000/svg"><symbol id="next-disclosure"><svg xmlns="http://www.w3.org/2000/svg" viewBox="0 0 20 20"><path d="M6.28 9.28l3.366 3.366c.196.196.512.196.708 0L13.72 9.28c.293-.293.293-.767 0-1.06-.14-.14-.332-.22-.53-.22H6.81c-.414 0-.75.336-.75.75 0 .2.08.39.22.53z"></path></svg></symbol>
<symbol id="cancel-small-minor"><svg xmlns="http://www.w3.org/2000/svg" viewBox="0 0 20 20"><path d="M11.414 10l4.293-4.293c.391-.391.391-1.023 0-1.414s-1.023-.391-1.414 0l-4.293 4.293-4.293-4.293c-.391-.391-1.023-.391-1.414 0s-.391 1.023 0 1.414l4.293 4.293-4.293 4.293c-.391.391-.391 1.023 0 1.414.195.195.451.293.707.293.256 0 .512-.098.707-.293l4.293-4.293 4.293 4.293c.195.195.451.293.707.293.256 0 .512-.098.707-.293.391-.391.391-1.023 0-1.414l-4.293-4.293z"></path></svg></symbol></svg>