<svg class="sidebar__location__icon" viewBox="0 0 8 10" xmlns="http://www.w3.org/2000/svg">
                    <path fill-rule="evenodd" clip-rule="evenodd" d="M4.81121 9.52514C4.63706 9.81663 4.33383 9.99064 4.00001 9.99064C3.66621 9.99064 3.36296 9.81663 3.18881 9.52514C1.96858 7.48276 0.514008 4.79105 0.514008 3.56622C0.514008 1.5998 2.07781 0 4.00001 0C5.92221 0 7.48601 1.5998 7.48601 3.56622C7.48601 4.79105 6.03146 7.48276 4.81121 9.52514ZM4.00001 1.88798C3.22741 1.88798 2.59883 2.531 2.59883 3.32135C2.59883 4.11176 3.22741 4.75476 4.00001 4.75476C4.7726 4.75476 5.40118 4.11174 5.40118 3.32135C5.40118 2.531 4.7726 1.88798 4.00001 1.88798Z"></path>
                  </svg>